<svg xmlns="http://www.w3.org/2000/svg" xmlns:xlink="http://www.w3.org/1999/xlink" width="1080" zoomAndPan="magnify" viewBox="0 0 810 809.999993" height="1080" preserveAspectRatio="xMidYMid meet" version="1.0"><defs><clipPath id="ceab828f58"><path d="M 2 92.136719 L 808 92.136719 L 808 717 L 2 717 Z M 2 92.136719 " clip-rule="nonzero"/></clipPath></defs><g clip-path="url(#ceab828f58)"><path fill="#5e17eb" d="M 807.511719 238.980469 C 807.511719 238.359375 807.511719 237.808594 807.511719 237.1875 C 807.460938 234.796875 807.351562 232.40625 807.183594 230.019531 C 807.015625 227.628906 806.789062 225.25 806.507812 222.871094 C 806.222656 220.496094 805.882812 218.125 805.484375 215.765625 C 805.085938 213.40625 804.632812 211.058594 804.121094 208.71875 C 803.609375 206.382812 803.042969 204.058594 802.417969 201.746094 C 801.792969 199.4375 801.113281 197.140625 800.378906 194.863281 C 799.644531 192.585938 798.855469 190.328125 798.007812 188.089844 C 797.164062 185.847656 796.265625 183.632812 795.3125 181.4375 C 794.363281 179.238281 793.359375 177.066406 792.300781 174.921875 C 791.242188 172.773438 790.136719 170.652344 788.976562 168.558594 C 787.816406 166.464844 786.605469 164.402344 785.347656 162.367188 C 784.085938 160.332031 782.777344 158.328125 781.421875 156.355469 C 780.066406 154.386719 778.660156 152.449219 777.210938 150.542969 C 775.761719 148.640625 774.265625 146.773438 772.722656 144.941406 C 771.183594 143.109375 769.597656 141.316406 767.96875 139.5625 C 766.34375 137.808594 764.671875 136.09375 762.960938 134.421875 C 761.25 132.746094 759.5 131.117188 757.710938 129.527344 C 755.921875 127.9375 754.09375 126.394531 752.230469 124.890625 C 750.363281 123.390625 748.464844 121.9375 746.53125 120.527344 C 744.59375 119.121094 742.625 117.761719 740.625 116.445312 C 738.625 115.132812 736.59375 113.871094 734.53125 112.65625 C 732.46875 111.441406 730.378906 110.277344 728.261719 109.164062 C 726.140625 108.050781 723.996094 106.988281 721.828125 105.976562 C 719.65625 104.96875 717.464844 104.011719 715.246094 103.109375 C 713.03125 102.203125 710.792969 101.355469 708.539062 100.558594 C 706.28125 99.765625 704.003906 99.023438 701.710938 98.339844 C 699.417969 97.65625 697.109375 97.027344 694.785156 96.453125 C 692.460938 95.878906 690.125 95.363281 687.777344 94.902344 C 685.429688 94.441406 683.070312 94.039062 680.703125 93.695312 C 678.332031 93.347656 675.957031 93.058594 673.574219 92.828125 C 671.195312 92.597656 668.808594 92.425781 666.417969 92.308594 C 664.027344 92.195312 661.632812 92.136719 659.242188 92.136719 L 150.757812 92.136719 C 148.367188 92.140625 145.980469 92.203125 143.59375 92.324219 C 141.207031 92.445312 138.824219 92.625 136.445312 92.859375 C 134.066406 93.09375 131.695312 93.386719 129.332031 93.738281 C 126.96875 94.085938 124.613281 94.492188 122.269531 94.957031 C 119.925781 95.421875 117.59375 95.941406 115.273438 96.519531 C 112.953125 97.097656 110.652344 97.726562 108.363281 98.417969 C 106.074219 99.105469 103.800781 99.847656 101.550781 100.644531 C 99.296875 101.441406 97.066406 102.296875 94.851562 103.199219 C 92.640625 104.105469 90.453125 105.066406 88.289062 106.078125 C 86.121094 107.089844 83.984375 108.152344 81.867188 109.269531 C 79.753906 110.382812 77.667969 111.546875 75.613281 112.765625 C 73.554688 113.980469 71.527344 115.246094 69.53125 116.558594 C 67.535156 117.875 65.570312 119.234375 63.640625 120.644531 C 61.710938 122.054688 59.816406 123.507812 57.957031 125.007812 C 56.09375 126.507812 54.273438 128.054688 52.488281 129.640625 C 50.703125 131.230469 48.957031 132.863281 47.25 134.535156 C 45.542969 136.207031 43.878906 137.921875 42.253906 139.675781 C 40.628906 141.429688 39.050781 143.222656 37.511719 145.050781 C 35.976562 146.882812 34.484375 148.746094 33.039062 150.648438 C 31.589844 152.550781 30.191406 154.488281 28.835938 156.457031 C 27.484375 158.429688 26.179688 160.429688 24.921875 162.460938 C 23.667969 164.496094 22.460938 166.558594 21.304688 168.648438 C 20.148438 170.742188 19.042969 172.859375 17.988281 175.003906 C 16.933594 177.148438 15.929688 179.316406 14.980469 181.511719 C 14.03125 183.703125 13.136719 185.917969 12.292969 188.15625 C 11.453125 190.394531 10.664062 192.648438 9.933594 194.921875 C 9.199219 197.199219 8.519531 199.488281 7.898438 201.796875 C 7.277344 204.105469 6.710938 206.425781 6.199219 208.757812 C 5.691406 211.09375 5.234375 213.441406 4.839844 215.796875 C 4.441406 218.152344 4.101562 220.519531 3.820312 222.890625 C 3.539062 225.265625 3.3125 227.644531 3.148438 230.027344 C 2.980469 232.410156 2.871094 234.796875 2.816406 237.1875 C 2.816406 237.808594 2.816406 238.359375 2.816406 238.980469 C 2.816406 239.601562 2.816406 239.933594 2.816406 240.40625 L 2.816406 567.832031 C 2.820312 570.257812 2.882812 572.683594 3.003906 575.105469 C 3.125 577.527344 3.304688 579.949219 3.542969 582.363281 C 3.785156 584.777344 4.082031 587.183594 4.441406 589.582031 C 4.800781 591.980469 5.214844 594.371094 5.691406 596.75 C 6.164062 599.128906 6.699219 601.492188 7.289062 603.847656 C 7.882812 606.199219 8.53125 608.535156 9.234375 610.859375 C 9.941406 613.179688 10.703125 615.480469 11.519531 617.765625 C 12.339844 620.046875 13.214844 622.308594 14.144531 624.550781 C 15.074219 626.792969 16.054688 629.007812 17.09375 631.199219 C 18.132812 633.394531 19.222656 635.558594 20.367188 637.699219 C 21.511719 639.835938 22.707031 641.945312 23.957031 644.027344 C 25.203125 646.109375 26.503906 648.15625 27.851562 650.171875 C 29.199219 652.191406 30.597656 654.171875 32.042969 656.121094 C 33.488281 658.070312 34.980469 659.980469 36.519531 661.855469 C 38.058594 663.730469 39.640625 665.566406 41.269531 667.363281 C 42.898438 669.160156 44.574219 670.917969 46.289062 672.632812 C 48.003906 674.347656 49.757812 676.019531 51.558594 677.648438 C 53.355469 679.28125 55.191406 680.863281 57.066406 682.402344 C 58.941406 683.941406 60.851562 685.433594 62.800781 686.878906 C 64.75 688.324219 66.730469 689.722656 68.75 691.070312 C 70.765625 692.417969 72.8125 693.71875 74.894531 694.964844 C 76.972656 696.210938 79.082031 697.410156 81.222656 698.554688 C 83.363281 699.699219 85.527344 700.789062 87.71875 701.828125 C 89.914062 702.863281 92.128906 703.847656 94.371094 704.777344 C 96.609375 705.707031 98.875 706.582031 101.15625 707.398438 C 103.441406 708.21875 105.742188 708.980469 108.0625 709.6875 C 110.386719 710.390625 112.722656 711.039062 115.074219 711.632812 C 117.425781 712.222656 119.792969 712.753906 122.171875 713.230469 C 124.550781 713.707031 126.941406 714.121094 129.339844 714.480469 C 131.738281 714.835938 134.144531 715.136719 136.558594 715.375 C 138.972656 715.617188 141.390625 715.796875 143.816406 715.917969 C 146.238281 716.039062 148.664062 716.101562 151.089844 716.105469 L 659.714844 716.105469 C 662.136719 716.09375 664.558594 716.023438 666.972656 715.894531 C 669.390625 715.765625 671.804688 715.578125 674.214844 715.332031 C 676.621094 715.085938 679.023438 714.78125 681.414062 714.417969 C 683.808594 714.054688 686.191406 713.628906 688.566406 713.148438 C 690.9375 712.667969 693.296875 712.128906 695.644531 711.535156 C 697.992188 710.9375 700.320312 710.285156 702.636719 709.574219 C 704.949219 708.863281 707.246094 708.097656 709.523438 707.277344 C 711.800781 706.453125 714.054688 705.574219 716.289062 704.640625 C 718.523438 703.710938 720.734375 702.722656 722.917969 701.679688 C 725.105469 700.640625 727.261719 699.546875 729.394531 698.398438 C 731.527344 697.253906 733.628906 696.054688 735.703125 694.804688 C 737.777344 693.554688 739.820312 692.253906 741.828125 690.90625 C 743.839844 689.558594 745.8125 688.160156 747.757812 686.710938 C 749.699219 685.265625 751.601562 683.773438 753.472656 682.234375 C 755.339844 680.695312 757.167969 679.109375 758.960938 677.480469 C 760.75 675.851562 762.5 674.179688 764.210938 672.464844 C 765.917969 670.75 767.585938 668.996094 769.207031 667.199219 C 770.832031 665.402344 772.410156 663.570312 773.945312 661.695312 C 775.476562 659.820312 776.964844 657.914062 778.402344 655.964844 C 779.84375 654.019531 781.234375 652.039062 782.578125 650.027344 C 783.921875 648.011719 785.214844 645.964844 786.457031 643.886719 C 787.699219 641.808594 788.890625 639.703125 790.03125 637.566406 C 791.171875 635.433594 792.257812 633.269531 793.292969 631.082031 C 794.328125 628.890625 795.304688 626.679688 796.230469 624.441406 C 797.15625 622.203125 798.027344 619.945312 798.84375 617.667969 C 799.660156 615.386719 800.417969 613.089844 801.121094 610.773438 C 801.824219 608.457031 802.46875 606.125 803.058594 603.773438 C 803.644531 601.425781 804.175781 599.066406 804.652344 596.691406 C 805.125 594.316406 805.539062 591.933594 805.894531 589.539062 C 806.25 587.144531 806.546875 584.742188 806.789062 582.332031 C 807.027344 579.921875 807.207031 577.507812 807.328125 575.089844 C 807.449219 572.671875 807.507812 570.253906 807.511719 567.832031 L 807.511719 240.40625 C 807.511719 239.933594 807.511719 239.457031 807.511719 238.980469 Z M 150.757812 165.320312 L 659.386719 165.320312 C 661.394531 165.328125 663.398438 165.414062 665.398438 165.582031 C 667.398438 165.75 669.390625 166 671.367188 166.324219 C 673.347656 166.652344 675.3125 167.058594 677.261719 167.546875 C 679.207031 168.03125 681.132812 168.59375 683.035156 169.234375 C 684.9375 169.875 686.8125 170.589844 688.65625 171.378906 C 690.5 172.171875 692.3125 173.035156 694.085938 173.96875 C 695.863281 174.90625 697.597656 175.910156 699.292969 176.988281 C 700.988281 178.0625 702.636719 179.203125 704.238281 180.410156 C 705.84375 181.621094 707.394531 182.890625 708.894531 184.222656 C 710.394531 185.554688 711.839844 186.945312 713.230469 188.394531 C 714.621094 189.84375 715.949219 191.347656 717.21875 192.902344 C 718.484375 194.457031 719.691406 196.0625 720.828125 197.714844 C 721.96875 199.367188 723.039062 201.0625 724.042969 202.800781 C 725.046875 204.539062 725.980469 206.3125 726.839844 208.128906 C 727.699219 209.941406 728.488281 211.785156 729.199219 213.660156 C 729.910156 215.539062 730.546875 217.441406 731.109375 219.367188 L 405 380.628906 L 79.039062 219.367188 C 79.597656 217.441406 80.234375 215.539062 80.945312 213.660156 C 81.660156 211.785156 82.445312 209.941406 83.304688 208.128906 C 84.167969 206.3125 85.097656 204.539062 86.101562 202.800781 C 87.105469 201.0625 88.175781 199.367188 89.316406 197.714844 C 90.457031 196.0625 91.660156 194.457031 92.929688 192.902344 C 94.199219 191.347656 95.527344 189.84375 96.914062 188.394531 C 98.304688 186.945312 99.75 185.554688 101.25 184.222656 C 102.75 182.890625 104.304688 181.621094 105.90625 180.410156 C 107.507812 179.203125 109.160156 178.0625 110.851562 176.988281 C 112.546875 175.910156 114.285156 174.90625 116.058594 173.96875 C 117.835938 173.035156 119.644531 172.171875 121.488281 171.378906 C 123.335938 170.589844 125.207031 169.875 127.109375 169.234375 C 129.011719 168.59375 130.9375 168.03125 132.886719 167.546875 C 134.832031 167.058594 136.796875 166.652344 138.777344 166.324219 C 140.757812 166 142.746094 165.75 144.746094 165.582031 C 146.75 165.414062 148.75 165.328125 150.757812 165.320312 Z M 659.386719 642.917969 L 150.757812 642.917969 C 149.53125 642.917969 148.304688 642.886719 147.074219 642.824219 C 145.847656 642.765625 144.625 642.671875 143.402344 642.550781 C 142.179688 642.429688 140.960938 642.277344 139.746094 642.097656 C 138.53125 641.917969 137.320312 641.707031 136.117188 641.464844 C 134.910156 641.222656 133.710938 640.953125 132.519531 640.65625 C 131.328125 640.355469 130.144531 640.027344 128.96875 639.671875 C 127.796875 639.3125 126.628906 638.925781 125.472656 638.511719 C 124.316406 638.097656 123.171875 637.65625 122.035156 637.183594 C 120.902344 636.714844 119.777344 636.214844 118.667969 635.691406 C 117.558594 635.164062 116.460938 634.613281 115.378906 634.03125 C 114.292969 633.453125 113.226562 632.847656 112.171875 632.214844 C 111.117188 631.582031 110.082031 630.925781 109.058594 630.242188 C 108.039062 629.558594 107.035156 628.851562 106.046875 628.121094 C 105.0625 627.390625 104.09375 626.632812 103.144531 625.855469 C 102.195312 625.074219 101.265625 624.273438 100.355469 623.445312 C 99.445312 622.621094 98.554688 621.773438 97.6875 620.90625 C 96.816406 620.039062 95.96875 619.148438 95.144531 618.238281 C 94.320312 617.328125 93.519531 616.398438 92.738281 615.449219 C 91.960938 614.5 91.203125 613.53125 90.472656 612.542969 C 89.738281 611.558594 89.03125 610.554688 88.347656 609.53125 C 87.667969 608.511719 87.007812 607.472656 86.378906 606.417969 C 85.746094 605.367188 85.140625 604.296875 84.558594 603.214844 C 83.980469 602.132812 83.429688 601.035156 82.902344 599.925781 C 82.375 598.8125 81.878906 597.691406 81.40625 596.554688 C 80.9375 595.421875 80.496094 594.277344 80.078125 593.121094 C 79.664062 591.964844 79.277344 590.796875 78.921875 589.621094 C 78.566406 588.445312 78.234375 587.261719 77.9375 586.070312 C 77.636719 584.878906 77.367188 583.679688 77.128906 582.476562 C 76.886719 581.273438 76.675781 580.0625 76.496094 578.847656 C 76.3125 577.632812 76.160156 576.414062 76.039062 575.191406 C 75.917969 573.96875 75.828125 572.742188 75.765625 571.515625 C 75.703125 570.289062 75.671875 569.0625 75.671875 567.832031 L 75.671875 299.359375 L 388.789062 454.398438 C 391.308594 455.644531 393.9375 456.585938 396.675781 457.226562 C 399.414062 457.863281 402.1875 458.183594 405 458.183594 C 407.8125 458.183594 410.585938 457.863281 413.324219 457.226562 C 416.0625 456.585938 418.691406 455.644531 421.210938 454.398438 L 734.328125 299.359375 L 734.328125 567.832031 C 734.328125 569.0625 734.296875 570.289062 734.234375 571.515625 C 734.171875 572.742188 734.082031 573.96875 733.960938 575.191406 C 733.839844 576.414062 733.6875 577.632812 733.503906 578.847656 C 733.324219 580.0625 733.113281 581.273438 732.871094 582.476562 C 732.632812 583.679688 732.363281 584.878906 732.0625 586.070312 C 731.765625 587.261719 731.433594 588.445312 731.078125 589.621094 C 730.722656 590.796875 730.335938 591.960938 729.921875 593.121094 C 729.503906 594.277344 729.0625 595.421875 728.59375 596.554688 C 728.121094 597.691406 727.625 598.8125 727.097656 599.921875 C 726.570312 601.035156 726.019531 602.132812 725.441406 603.214844 C 724.859375 604.296875 724.253906 605.367188 723.621094 606.417969 C 722.992188 607.472656 722.332031 608.511719 721.652344 609.53125 C 720.96875 610.554688 720.261719 611.558594 719.527344 612.542969 C 718.796875 613.53125 718.039062 614.5 717.261719 615.449219 C 716.480469 616.398438 715.679688 617.328125 714.855469 618.238281 C 714.03125 619.148438 713.183594 620.039062 712.3125 620.90625 C 711.445312 621.773438 710.554688 622.621094 709.644531 623.445312 C 708.734375 624.273438 707.804688 625.074219 706.855469 625.855469 C 705.90625 626.632812 704.9375 627.390625 703.953125 628.121094 C 702.964844 628.851562 701.960938 629.558594 700.941406 630.242188 C 699.917969 630.925781 698.878906 631.582031 697.828125 632.214844 C 696.773438 632.847656 695.707031 633.453125 694.621094 634.03125 C 693.539062 634.613281 692.441406 635.164062 691.332031 635.691406 C 690.222656 636.214844 689.097656 636.714844 687.964844 637.183594 C 686.828125 637.65625 685.683594 638.097656 684.527344 638.511719 C 683.371094 638.925781 682.203125 639.3125 681.03125 639.671875 C 679.855469 640.027344 678.671875 640.355469 677.480469 640.65625 C 676.289062 640.953125 675.089844 641.222656 673.882812 641.464844 C 672.679688 641.707031 671.46875 641.917969 670.253906 642.097656 C 669.039062 642.277344 667.820312 642.429688 666.597656 642.550781 C 665.375 642.671875 664.152344 642.765625 662.925781 642.824219 C 661.699219 642.886719 660.46875 642.917969 659.242188 642.917969 Z M 659.386719 642.917969 " fill-opacity="1" fill-rule="nonzero"/></g></svg>