<svg xmlns="http://www.w3.org/2000/svg" xmlns:xlink="http://www.w3.org/1999/xlink" width="1080" zoomAndPan="magnify" viewBox="0 0 810 809.999993" height="1080" preserveAspectRatio="xMidYMid meet" version="1.0"><path fill="#5E17EB" d="M 358.652344 23.386719 C 175.945312 43.636719 27.066406 191.0625 5.019531 373.484375 C 4.304688 379.210938 3.714844 384.949219 3.25 390.703125 C 2.78125 396.453125 2.4375 402.214844 2.21875 407.980469 C 2 413.746094 1.902344 419.515625 1.929688 425.285156 C 1.957031 431.058594 2.109375 436.824219 2.382812 442.589844 C 2.65625 448.355469 3.054688 454.109375 3.574219 459.859375 C 4.097656 465.605469 4.742188 471.339844 5.507812 477.058594 C 6.273438 482.777344 7.164062 488.480469 8.175781 494.160156 C 9.1875 499.84375 10.320312 505.5 11.570312 511.132812 C 12.824219 516.765625 14.199219 522.371094 15.691406 527.945312 C 17.1875 533.519531 18.800781 539.058594 20.53125 544.5625 C 22.261719 550.066406 24.109375 555.535156 26.074219 560.960938 C 28.039062 566.386719 30.121094 571.765625 32.316406 577.105469 C 34.511719 582.441406 36.824219 587.726562 39.246094 592.964844 C 41.667969 598.203125 44.203125 603.386719 46.847656 608.515625 C 49.492188 613.644531 52.246094 618.714844 55.105469 623.726562 C 57.96875 628.738281 60.9375 633.6875 64.011719 638.570312 C 67.085938 643.453125 70.261719 648.269531 73.542969 653.015625 C 76.824219 657.765625 80.203125 662.441406 83.683594 667.042969 C 87.167969 671.648438 90.742188 676.171875 94.417969 680.621094 C 98.09375 685.074219 101.863281 689.441406 105.722656 693.730469 C 109.585938 698.015625 113.539062 702.222656 117.582031 706.339844 C 121.625 710.457031 125.75 714.488281 129.964844 718.429688 C 134.179688 722.371094 138.480469 726.222656 142.859375 729.980469 C 147.238281 733.738281 151.699219 737.398438 156.234375 740.964844 C 160.769531 744.53125 165.382812 748 170.066406 751.371094 C 174.753906 754.738281 179.507812 758.003906 184.335938 761.171875 C 189.160156 764.335938 194.050781 767.394531 199.007812 770.351562 C 203.964844 773.308594 208.980469 776.15625 214.0625 778.894531 C 219.140625 781.636719 224.273438 784.265625 229.464844 786.785156 C 234.65625 789.308594 239.902344 791.714844 245.195312 794.011719 C 250.488281 796.308594 255.832031 798.488281 261.21875 800.554688 C 266.609375 802.621094 272.039062 804.570312 277.507812 806.40625 C 297.671875 809.628906 304.121094 797.136719 304.121094 786.269531 L 304.121094 718.160156 C 192.515625 742.40625 168.757812 664.199219 168.757812 664.199219 C 150.277344 617.453125 124.035156 604.960938 124.035156 604.960938 C 87.359375 579.976562 126.890625 580.804688 126.890625 580.804688 C 167.160156 583.65625 188.523438 622.300781 188.523438 622.300781 C 223.574219 683.539062 282.785156 665.398438 305.746094 655.730469 C 309.367188 629.546875 320.003906 611.808594 331.128906 601.738281 C 241.542969 591.671875 147.796875 557.019531 147.796875 403.546875 C 147.796875 358.824219 163.109375 322.972656 189.292969 294.367188 C 185.273438 284.296875 171.152344 242.402344 193.316406 188.011719 C 193.316406 188.011719 227.167969 177.117188 304.121094 229.109375 C 320.539062 224.691406 337.175781 221.363281 354.035156 219.132812 C 370.890625 216.90625 387.824219 215.789062 404.828125 215.789062 C 421.832031 215.789062 438.761719 216.90625 455.621094 219.132812 C 472.476562 221.363281 489.117188 224.691406 505.535156 229.109375 C 582.542969 177.117188 616.339844 188.011719 616.339844 188.011719 C 638.472656 242.402344 624.382812 284.296875 620.363281 294.367188 C 646.542969 322.886719 661.859375 358.824219 661.859375 403.546875 C 661.859375 557.417969 567.570312 591.269531 477.757812 601.339844 C 492.246094 613.832031 505.535156 638.417969 505.535156 675.863281 L 505.535156 786.269531 C 505.535156 797.136719 511.980469 810.027344 532.546875 806.40625 C 538.386719 804.449219 544.175781 802.359375 549.921875 800.136719 C 555.664062 797.914062 561.355469 795.5625 566.992188 793.078125 C 572.628906 790.597656 578.207031 787.984375 583.722656 785.246094 C 589.238281 782.507812 594.691406 779.644531 600.078125 776.65625 C 605.460938 773.667969 610.777344 770.558594 616.019531 767.324219 C 621.261719 764.09375 626.429688 760.742188 631.519531 757.273438 C 636.609375 753.804688 641.617188 750.222656 646.542969 746.523438 C 651.46875 742.828125 656.304688 739.019531 661.054688 735.097656 C 665.808594 731.179688 670.464844 727.152344 675.03125 723.019531 C 679.597656 718.886719 684.066406 714.648438 688.441406 710.3125 C 692.8125 705.972656 697.082031 701.539062 701.253906 697.003906 C 705.421875 692.472656 709.484375 687.84375 713.441406 683.125 C 717.398438 678.40625 721.246094 673.597656 724.984375 668.699219 C 728.71875 663.804688 732.34375 658.824219 735.851562 653.761719 C 739.359375 648.699219 742.75 643.5625 746.023438 638.34375 C 749.296875 633.125 752.449219 627.835938 755.480469 622.472656 C 758.511719 617.113281 761.417969 611.683594 764.199219 606.1875 C 766.980469 600.695312 769.636719 595.136719 772.164062 589.519531 C 774.691406 583.90625 777.085938 578.234375 779.355469 572.507812 C 781.621094 566.78125 783.757812 561.003906 785.761719 555.179688 C 787.765625 549.355469 789.632812 543.488281 791.367188 537.578125 C 793.101562 531.667969 794.699219 525.722656 796.160156 519.738281 C 797.621094 513.753906 798.945312 507.742188 800.132812 501.695312 C 801.316406 495.652344 802.363281 489.585938 803.273438 483.492188 C 804.179688 477.402344 804.949219 471.292969 805.578125 465.164062 C 806.207031 459.039062 806.691406 452.898438 807.039062 446.75 C 807.386719 440.601562 807.59375 434.445312 807.65625 428.289062 C 807.722656 422.128906 807.644531 415.972656 807.429688 409.816406 C 807.210938 403.660156 806.851562 397.515625 806.355469 391.375 C 805.855469 385.234375 805.214844 379.113281 804.4375 373 C 803.65625 366.890625 802.738281 360.804688 801.679688 354.734375 C 800.621094 348.667969 799.421875 342.628906 798.089844 336.617188 C 796.753906 330.601562 795.28125 324.625 793.671875 318.679688 C 792.0625 312.734375 790.316406 306.828125 788.4375 300.964844 C 786.558594 295.097656 784.542969 289.277344 782.398438 283.503906 C 780.25 277.730469 777.972656 272.011719 775.566406 266.34375 C 773.15625 260.675781 770.621094 255.0625 767.953125 249.511719 C 765.289062 243.957031 762.496094 238.46875 759.578125 233.046875 C 756.664062 227.621094 753.621094 222.265625 750.460938 216.980469 C 747.296875 211.695312 744.015625 206.484375 740.613281 201.351562 C 737.214844 196.214844 733.695312 191.160156 730.0625 186.1875 C 726.429688 181.214844 722.683594 176.324219 718.828125 171.523438 C 714.972656 166.722656 711.007812 162.011719 706.933594 157.390625 C 702.863281 152.769531 698.683594 148.246094 694.40625 143.816406 C 690.125 139.386719 685.746094 135.058594 681.265625 130.828125 C 676.789062 126.601562 672.214844 122.476562 667.550781 118.457031 C 662.882812 114.4375 658.125 110.53125 653.277344 106.726562 C 648.433594 102.925781 643.5 99.238281 638.484375 95.664062 C 633.46875 92.089844 628.375 88.632812 623.199219 85.289062 C 618.027344 81.949219 612.78125 78.726562 607.457031 75.625 C 602.136719 72.523438 596.746094 69.546875 591.289062 66.691406 C 585.832031 63.839844 580.308594 61.109375 574.726562 58.507812 C 569.144531 55.910156 563.503906 53.4375 557.808594 51.09375 C 552.113281 48.75 546.367188 46.539062 540.566406 44.460938 C 534.769531 42.378906 528.929688 40.433594 523.042969 38.625 C 517.15625 36.8125 511.230469 35.136719 505.265625 33.59375 C 499.300781 32.054688 493.308594 30.652344 487.277344 29.386719 C 481.25 28.121094 475.199219 26.992188 469.117188 26.003906 C 463.039062 25.019531 456.941406 24.167969 450.820312 23.460938 C 444.703125 22.75 438.570312 22.183594 432.429688 21.753906 C 426.285156 21.328125 420.132812 21.039062 413.976562 20.894531 C 407.816406 20.75 401.660156 20.746094 395.503906 20.878906 C 389.34375 21.015625 383.195312 21.292969 377.046875 21.710938 C 370.902344 22.128906 364.769531 22.6875 358.652344 23.386719 Z M 358.652344 23.386719 " fill-opacity="1" fill-rule="nonzero"/></svg>