<svg xmlns="http://www.w3.org/2000/svg" xmlns:xlink="http://www.w3.org/1999/xlink" width="1080" zoomAndPan="magnify" viewBox="0 0 810 809.999993" height="1080" preserveAspectRatio="xMidYMid meet" version="1.0"><defs><clipPath id="5141fbb265"><path d="M 0 5.726562 L 804 5.726562 L 804 809.726562 L 0 809.726562 Z M 0 5.726562 " clip-rule="nonzero"/></clipPath></defs><g clip-path="url(#5141fbb265)"><path fill="#5E17EB" d="M 236.484375 5.726562 C 106.675781 5.726562 0 112.257812 0 242.210938 L 0 573.515625 C 0 703.324219 106.53125 809.996094 236.484375 809.996094 L 567.785156 809.996094 C 697.59375 809.996094 804.269531 703.464844 804.269531 573.515625 L 804.269531 242.210938 C 804.269531 112.402344 697.738281 5.726562 567.785156 5.726562 Z M 236.484375 78.84375 L 567.785156 78.84375 C 658.179688 78.84375 731.152344 151.816406 731.152344 242.210938 L 731.152344 573.515625 C 731.152344 663.910156 658.179688 736.882812 567.785156 736.882812 L 236.484375 736.882812 C 146.089844 736.882812 73.117188 663.910156 73.117188 573.515625 L 73.117188 242.210938 C 73.117188 151.816406 146.089844 78.84375 236.484375 78.84375 Z M 618.054688 158.8125 C 599.632812 158.8125 584.921875 173.519531 584.921875 191.941406 C 584.921875 210.363281 599.632812 225.074219 618.054688 225.074219 C 636.476562 225.074219 651.183594 210.363281 651.183594 191.941406 C 651.183594 173.519531 636.476562 158.8125 618.054688 158.8125 Z M 402.132812 188.515625 C 281.464844 188.515625 182.789062 287.191406 182.789062 407.863281 C 182.789062 528.53125 281.464844 627.207031 402.132812 627.207031 C 522.804688 627.207031 621.480469 528.53125 621.480469 407.863281 C 621.480469 287.191406 522.804688 188.515625 402.132812 188.515625 Z M 402.132812 261.632812 C 483.390625 261.632812 548.367188 326.605469 548.367188 407.863281 C 548.367188 489.117188 483.390625 554.09375 402.132812 554.09375 C 320.878906 554.09375 255.902344 489.117188 255.902344 407.863281 C 255.902344 326.605469 320.878906 261.632812 402.132812 261.632812 Z M 402.132812 261.632812 " fill-opacity="1" fill-rule="nonzero"/></g></svg>